# xmcd CD database file
#
# Track frame offsets:
#	150
#	27281
#	59271
#	76474
#	97558
#	118554
#	150315
#	171595
#	190450
#
# Disc length: 2761 seconds
#
# Revision: 0
# Processed by: cddbd v1.5.2PL0 Copyright (c) Steve Scherf et al.
# Submitted via: CDex 1.51
#
DISCID=670ac709
DTITLE=Ro Gebardt and Burdette Becks - Meets Beatltes
DYEAR=2010
DGENRE=Jazz
TTITLE0=The Fool On The Hill
TTITLE1=Wave
TTITLE2=And I Love Her
TTITLE3=Lady Madonna
TTITLE4=Yesterday
TTITLE5=Be There
TTITLE6=You Never Give Me Your Money
TTITLE7=Day Tripper
TTITLE8=Anos Dourados
EXTD=YEAR: 2010
EXTT0=
EXTT1=
EXTT2=
EXTT3=
EXTT4=
EXTT5=
EXTT6=
EXTT7=
EXTT8=
PLAYORDER=
